<svg width="48" height="48" viewBox="0 0 48 48" fill="none" xmlns="http://www.w3.org/2000/svg">
<path d="M42.7135 14.3528C40.4974 10.5144 37.0767 7.51446 32.9819 5.81834C28.8871 4.12221 24.347 3.82463 20.0658 4.97177C15.7847 6.11891 12.0016 8.64665 9.30349 12.1629C6.60534 15.6792 5.14286 19.9876 5.14286 24.4198C5.14286 28.852 6.60534 33.1603 9.30349 36.6766C12.0016 40.1929 15.7847 42.7207 20.0658 43.8678C24.347 45.015 28.8871 44.7174 32.9819 43.0213C37.0767 41.3251 40.4974 38.3252 42.7135 34.4868" stroke="white" stroke-width="2" stroke-linecap="round" stroke-linejoin="round"/>
<path d="M38.6867 32.4734C36.3026 33.4567 33.6944 33.767 31.1462 33.3705C28.5979 32.974 26.2073 31.886 24.2346 30.2248C22.262 28.5636 20.7829 26.393 19.9586 23.9494C19.1342 21.5058 18.9961 18.8828 19.5594 16.3662" stroke="white" stroke-width="2" stroke-linecap="round" stroke-linejoin="round"/>
<path d="M22.5795 18.3796C22.4359 19.5185 22.5376 20.675 22.8775 21.7715C23.2175 22.8679 23.7879 23.8791 24.5506 24.7371C25.3132 25.5951 26.2505 26.2801 27.2995 26.7463C28.3486 27.2124 29.4852 27.4489 30.6331 27.4399" stroke="white" stroke-width="2" stroke-linecap="round" stroke-linejoin="round"/>
<path d="M28.1164 23.4131C29.5063 23.4131 30.6331 22.2863 30.6331 20.8963C30.6331 19.5064 29.5063 18.3796 28.1164 18.3796C26.7264 18.3796 25.5996 19.5064 25.5996 20.8963C25.5996 22.2863 26.7264 23.4131 28.1164 23.4131Z" fill="white"/>
<path d="M20.5661 25.4265C20.972 26.9352 21.0547 28.868 20.7876 30.436C20.5206 32.004 19.9216 33.4932 19.039 34.7835C18.1564 36.0738 17.0148 37.1292 15.7063 37.8645C14.3978 38.5999 12.9589 38.9946 11.5057 39.017" stroke="white" stroke-width="2" stroke-linecap="round" stroke-linejoin="round"/>
</svg>
