<svg width="24" height="24" viewBox="0 0 24 24" fill="none" xmlns="http://www.w3.org/2000/svg">
<g clip-path="url(#clip0_3_238)">
<path d="M12 3.5C9.337 3.5 6.677 3.311 4.04 2.934L1 2.5H0.5V21.5H1L4.04 21.066C6.6765 20.6883 9.33658 20.4991 12 20.5M12 3.5C14.663 3.5 17.323 3.311 19.96 2.934L23 2.5H23.5V21.5H23L19.96 21.066C17.3235 20.6883 14.6634 20.4991 12 20.5M12 3.5V9M12 20.5V15M12 9C12.7956 9 13.5587 9.31607 14.1213 9.87868C14.6839 10.4413 15 11.2044 15 12C15 12.7956 14.6839 13.5587 14.1213 14.1213C13.5587 14.6839 12.7956 15 12 15M12 9C11.2044 9 10.4413 9.31607 9.87868 9.87868C9.31607 10.4413 9 11.2044 9 12C9 12.7956 9.31607 13.5587 9.87868 14.1213C10.4413 14.6839 11.2044 15 12 15M0.5 7.5H1C2.19347 7.5 3.33807 7.97411 4.18198 8.81802C5.02589 9.66193 5.5 10.8065 5.5 12C5.5 13.1935 5.02589 14.3381 4.18198 15.182C3.33807 16.0259 2.19347 16.5 1 16.5H0.5M23.5 16.5H23C21.8065 16.5 20.6619 16.0259 19.818 15.182C18.9741 14.3381 18.5 13.1935 18.5 12C18.5 10.8065 18.9741 9.66193 19.818 8.81802C20.6619 7.97411 21.8065 7.5 23 7.5H23.5" stroke="#E6E6E6" stroke-width="1.5"/>
</g>
<defs>
<clipPath id="clip0_3_238">
<rect width="24" height="24" fill="white"/>
</clipPath>
</defs>
</svg>
